<?xml version="1.0" encoding="UTF-8" standalone="no" ?>
<!DOCTYPE svg PUBLIC "-//W3C//DTD SVG 1.1//EN" "http://www.w3.org/Graphics/SVG/1.1/DTD/svg11.dtd">
<svg xmlns="http://www.w3.org/2000/svg" xmlns:xlink="http://www.w3.org/1999/xlink" version="1.1" width="334" height="94" viewBox="0 0 334 94" xml:space="preserve">
<desc>Created with Fabric.js 4.6.0</desc>
<defs>
</defs>
<g transform="matrix(1 0 0 1 173.06 45.03)" id="Xt_N_WlUFjcNskYjo1HzW"  >
<path style="stroke: none; stroke-width: 1; stroke-dasharray: none; stroke-linecap: butt; stroke-dashoffset: 0; stroke-linejoin: miter; stroke-miterlimit: 4; fill: rgb(227,184,115); fill-rule: nonzero; opacity: 1;" vector-effect="non-scaling-stroke"  transform=" translate(0, 0)" d="M -146.8765 27 L -146.8765 -27 L 146.8765 -27 L 146.8765 27 z" stroke-linecap="round" />
</g>
<g transform="matrix(1 0 0 1 61.16 43.22)" id="k3wxhF0PRvD6xRccZGaaA"  >
<path style="stroke: rgb(255,255,255); stroke-width: 0.5; stroke-dasharray: none; stroke-linecap: round; stroke-dashoffset: 0; stroke-linejoin: round; stroke-miterlimit: 4; fill: rgb(255,255,255); fill-rule: evenodd; opacity: 1;" vector-effect="non-scaling-stroke"  transform=" translate(-49.98, -40.19)" d="M 35.2503 26.3819 C 35.2503 26.171 35.4285 26 35.6484 26 L 64.3115 26 C 64.5314 26 64.7096 26.171 64.7096 26.3819 L 64.7096 54.0039 C 64.7096 54.2148 64.5314 54.3858 64.3115 54.3858 C 64.0916 54.3858 63.9134 54.2148 63.9134 54.0039 L 63.9134 26.7637 L 35.6484 26.7637 C 35.4285 26.7637 35.2503 26.5928 35.2503 26.3819 Z" stroke-linecap="round" />
</g>
<g transform="matrix(1 0 0 1 46.46 44.76)" id="F5hayrJc2oSAhecBvTAdG"  >
<path style="stroke: rgb(255,255,255); stroke-width: 0.25; stroke-dasharray: none; stroke-linecap: butt; stroke-dashoffset: 0; stroke-linejoin: miter; stroke-miterlimit: 4; fill: rgb(255,255,255); fill-rule: nonzero; opacity: 1;" vector-effect="non-scaling-stroke"  transform=" translate(-35.27, -41.73)" d="M 35.6681 54.5623 L 35.7931 54.5623 L 35.7931 54.4373 L 35.7931 30.6786 L 37.419 32.3044 C 37.622 32.5075 37.9512 32.5075 38.1543 32.3044 C 38.3574 32.1014 38.3574 31.7722 38.1543 31.5691 L 35.6408 29.0556 C 35.4377 28.8526 35.1085 28.8526 34.9055 29.0556 L 32.392 31.5691 C 32.1889 31.7722 32.1889 32.1014 32.392 32.3044 C 32.595 32.5075 32.9243 32.5075 33.1273 32.3044 L 34.7532 30.6786 L 34.7532 54.4373 L 34.7532 54.5623 L 34.8782 54.5623 L 35.6681 54.5623 Z" stroke-linecap="round" />
</g>
<g transform="matrix(1 0 0 1 58.83 57.47)" id="HoGlnPhJDmWFJh6mXSJWF"  >
<path style="stroke: rgb(255,255,255); stroke-width: 0.25; stroke-dasharray: none; stroke-linecap: butt; stroke-dashoffset: 0; stroke-linejoin: miter; stroke-miterlimit: 4; fill: rgb(255,255,255); fill-rule: nonzero; opacity: 1;" vector-effect="non-scaling-stroke"  transform=" translate(-47.65, -54.44)" d="M 34.7522 54.8315 L 34.7522 54.9565 L 34.8772 54.9565 L 58.7603 54.9565 L 57.1262 56.5821 C 56.922 56.7852 56.922 57.1148 57.1262 57.3179 C 57.33 57.5207 57.6602 57.5207 57.864 57.3179 L 60.3906 54.8044 C 60.5947 54.6013 60.5947 54.2717 60.3906 54.0686 L 57.864 51.5551 C 57.6602 51.3524 57.33 51.3524 57.1262 51.5551 C 56.922 51.7582 56.922 52.0878 57.1262 52.2909 L 58.7603 53.9166 L 34.8772 53.9166 L 34.7522 53.9166 L 34.7522 54.0416 L 34.7522 54.8315 Z" stroke-linecap="round" />
</g>
<g transform="matrix(1 0 0 1 54.7 31.79)" id="byD_ncsJfFr4YDA_CM5Nv"  >
<path style="stroke: rgb(255,255,255); stroke-width: 0.5; stroke-dasharray: none; stroke-linecap: round; stroke-dashoffset: 0; stroke-linejoin: round; stroke-miterlimit: 4; fill: rgb(255,255,255); fill-rule: evenodd; opacity: 1;" vector-effect="non-scaling-stroke"  transform=" translate(-43.51, -28.76)" d="M 46.1624 26.1157 C 46.3167 26.2699 46.3167 26.52 46.1624 26.6742 L 41.423 31.4137 C 41.2687 31.568 41.0186 31.568 40.8644 31.4137 C 40.7102 31.2595 40.7102 31.0094 40.8644 30.8552 L 45.6039 26.1157 C 45.7581 25.9614 46.0082 25.9614 46.1624 26.1157 Z" stroke-linecap="round" />
</g>
<g transform="matrix(1 0 0 1 73.19 50.42)" id="4NpZd-BgyPmWLPCpykalC"  >
<path style="stroke: rgb(255,255,255); stroke-width: 0.5; stroke-dasharray: none; stroke-linecap: round; stroke-dashoffset: 0; stroke-linejoin: round; stroke-miterlimit: 4; fill: rgb(255,255,255); fill-rule: evenodd; opacity: 1;" vector-effect="non-scaling-stroke"  transform=" translate(-62.01, -47.39)" d="M 64.4623 44.9423 C 64.6165 45.0966 64.6165 45.3467 64.4623 45.5009 L 60.1177 49.8454 C 59.9635 49.9997 59.7134 49.9997 59.5592 49.8454 C 59.4049 49.6912 59.4049 49.4411 59.5592 49.2869 L 63.9037 44.9423 C 64.0579 44.7881 64.308 44.7881 64.4623 44.9423 Z" stroke-linecap="round" />
</g>
<g transform="matrix(1 0 0 1 57.86 34.63)" id="lJFeK91-7jzcacwO82nxh"  >
<path style="stroke: rgb(255,255,255); stroke-width: 0.5; stroke-dasharray: none; stroke-linecap: round; stroke-dashoffset: 0; stroke-linejoin: round; stroke-miterlimit: 4; fill: rgb(255,255,255); fill-rule: evenodd; opacity: 1;" vector-effect="non-scaling-stroke"  transform=" translate(-46.67, -31.6)" d="M 52.0851 26.1139 C 52.2403 26.2672 52.2419 26.5172 52.0886 26.6725 L 41.8197 37.073 C 41.6665 37.2282 41.4164 37.2298 41.2612 37.0766 C 41.106 36.9233 41.1044 36.6732 41.2576 36.518 L 51.5265 26.1175 C 51.6798 25.9622 51.9299 25.9607 52.0851 26.1139 Z" stroke-linecap="round" />
</g>
<g transform="matrix(1 0 0 1 70.5 46.67)" id="Q-Ei_uenPZQOzt2cXz4hp"  >
<path style="stroke: rgb(255,255,255); stroke-width: 0.5; stroke-dasharray: none; stroke-linecap: round; stroke-dashoffset: 0; stroke-linejoin: round; stroke-miterlimit: 4; fill: rgb(255,255,255); fill-rule: evenodd; opacity: 1;" vector-effect="non-scaling-stroke"  transform=" translate(-59.31, -43.64)" d="M 64.5938 38.3591 C 64.7481 38.5133 64.7481 38.7634 64.5938 38.9176 L 54.5882 48.9232 C 54.434 49.0775 54.1839 49.0775 54.0297 48.9232 C 53.8754 48.769 53.8754 48.5189 54.0297 48.3647 L 64.0353 38.3591 C 64.1895 38.2048 64.4396 38.2048 64.5938 38.3591 Z" stroke-linecap="round" />
</g>
<g transform="matrix(1 0 0 1 61.08 37.65)" id="pEhln8f_t7z4Wv7NVtT0y"  >
<path style="stroke: rgb(255,255,255); stroke-width: 0.5; stroke-dasharray: none; stroke-linecap: round; stroke-dashoffset: 0; stroke-linejoin: round; stroke-miterlimit: 4; fill: rgb(255,255,255); fill-rule: evenodd; opacity: 1;" vector-effect="non-scaling-stroke"  transform=" translate(-49.9, -34.62)" d="M 58.4084 26.2495 C 58.5614 26.405 58.5594 26.6551 58.4039 26.8081 L 41.9474 43.0013 C 41.7919 43.1543 41.5418 43.1523 41.3888 42.9968 C 41.2358 42.8414 41.2379 42.5913 41.3933 42.4383 L 57.8499 26.245 C 58.0054 26.092 58.2554 26.0941 58.4084 26.2495 Z" stroke-linecap="round" />
</g>
<g transform="matrix(1 0 0 1 67.2 43.78)" id="Ezp-sZN1kblQNLjL-mgmU"  >
<path style="stroke: rgb(255,255,255); stroke-width: 0.5; stroke-dasharray: none; stroke-linecap: round; stroke-dashoffset: 0; stroke-linejoin: round; stroke-miterlimit: 4; fill: rgb(255,255,255); fill-rule: evenodd; opacity: 1;" vector-effect="non-scaling-stroke"  transform=" translate(-56.02, -40.75)" d="M 64.5939 32.1718 C 64.7482 32.3261 64.7482 32.5761 64.5939 32.7304 L 48.0057 49.3186 C 47.8515 49.4728 47.6014 49.4728 47.4472 49.3186 C 47.2929 49.1644 47.2929 48.9143 47.4472 48.7601 L 64.0354 32.1718 C 64.1896 32.0176 64.4397 32.0176 64.5939 32.1718 Z" stroke-linecap="round" />
</g>
<g transform="matrix(1 0 0 1 63.91 40.88)" id="eRrDKerBc1Lq1JNBcrfEs"  >
<path style="stroke: rgb(255,255,255); stroke-width: 0.5; stroke-dasharray: none; stroke-linecap: round; stroke-dashoffset: 0; stroke-linejoin: round; stroke-miterlimit: 4; fill: rgb(255,255,255); fill-rule: evenodd; opacity: 1;" vector-effect="non-scaling-stroke"  transform=" translate(-52.73, -37.85)" d="M 64.3306 26.2473 C 64.4849 26.4015 64.4849 26.6516 64.3306 26.8058 L 41.6864 49.4501 C 41.5321 49.6043 41.2821 49.6043 41.1278 49.4501 C 40.9736 49.2958 40.9736 49.0458 41.1278 48.8915 L 63.7721 26.2473 C 63.9263 26.093 64.1764 26.093 64.3306 26.2473 Z" stroke-linecap="round" />
</g>
<g transform="matrix(1 0 0 1 161.27 45.05)" id="YYW3ANviJT0AkasurpaCB"  >
<path style="stroke: rgb(255,255,255); stroke-width: 0.75; stroke-dasharray: none; stroke-linecap: butt; stroke-dashoffset: 0; stroke-linejoin: miter; stroke-miterlimit: 4; fill: none; fill-rule: nonzero; opacity: 1;" vector-effect="non-scaling-stroke"  transform=" translate(-150.09, -42.02)" d="M 150.09 69.035 L 150.09 15" stroke-linecap="round" />
</g>
<g transform="matrix(1 0 0 1 194.93 44.7)" id="1Hn5w3RJy4dhjDpZDTNzf"  >
<path style="stroke: none; stroke-width: 1; stroke-dasharray: none; stroke-linecap: butt; stroke-dashoffset: 0; stroke-linejoin: miter; stroke-miterlimit: 4; fill: rgb(255,255,255); fill-rule: nonzero; opacity: 1;" vector-effect="non-scaling-stroke"  transform=" translate(-183.74, -41.67)" d="M 191.6 28.1997 C 191.337 26.9464 190.196 26 188.831 26 C 188.519 26 188.266 26.2458 188.266 26.5499 C 188.266 26.854 188.519 27.0998 188.831 27.0998 C 189.766 27.0998 190.527 27.84 190.527 28.7496 C 190.527 29.6591 189.766 30.3993 188.831 30.3993 C 188.519 30.3993 188.266 30.6451 188.266 30.9492 C 188.266 31.2533 188.519 31.4992 188.831 31.4992 C 190.196 31.4992 191.337 30.5528 191.6 29.2995 L 199.005 29.2995 L 199.005 34.2487 L 168.484 34.2487 L 168.484 29.2995 L 176.397 29.2995 L 178.093 29.2995 C 178.405 29.2995 178.658 29.0537 178.658 28.7496 C 178.658 28.4455 178.405 28.1997 178.093 28.1997 L 177.066 28.1997 C 177.3 27.5607 177.922 27.0998 178.658 27.0998 C 179.593 27.0998 180.353 27.84 180.353 28.7496 C 180.353 29.6591 179.593 30.3993 178.658 30.3993 C 178.346 30.3993 178.093 30.6451 178.093 30.9492 C 178.093 31.2533 178.346 31.4992 178.658 31.4992 C 180.216 31.4992 181.484 30.2657 181.484 28.7496 C 181.484 27.2335 180.216 26 178.658 26 C 177.293 26 176.152 26.9464 175.889 28.1997 L 167.354 28.1997 L 167.354 35.3486 L 167.354 57.3452 L 200.135 57.3452 L 200.135 35.3486 L 200.135 28.1997 L 191.6 28.1997 Z M 199.005 56.2454 L 168.484 56.2454 L 168.484 35.3486 L 199.005 35.3486 L 199.005 56.2454 Z" stroke-linecap="round" />
</g>
<g transform="matrix(1 0 0 1 194.36 31.78)" id="KhQD6j-yVLrq4UvWd0Qc4"  >
<path style="stroke: none; stroke-width: 1; stroke-dasharray: none; stroke-linecap: butt; stroke-dashoffset: 0; stroke-linejoin: miter; stroke-miterlimit: 4; fill: rgb(255,255,255); fill-rule: nonzero; opacity: 1;" vector-effect="non-scaling-stroke"  transform=" translate(-183.18, -28.75)" d="M 182.049 27.0998 C 182.984 27.0998 183.745 27.84 183.745 28.7496 C 183.745 29.6591 182.984 30.3993 182.049 30.3993 C 181.737 30.3993 181.484 30.6451 181.484 30.9492 C 181.484 31.2533 181.737 31.4992 182.049 31.4992 C 183.607 31.4992 184.875 30.2657 184.875 28.7496 C 184.875 27.2335 183.607 26 182.049 26 C 181.737 26 181.484 26.2458 181.484 26.5499 C 181.484 26.854 181.737 27.0998 182.049 27.0998 Z" stroke-linecap="round" />
</g>
<g transform="matrix(1 0 0 1 197.75 31.78)" id="BhOcMdJ8jZVvccBfcGkkn"  >
<path style="stroke: none; stroke-width: 1; stroke-dasharray: none; stroke-linecap: butt; stroke-dashoffset: 0; stroke-linejoin: miter; stroke-miterlimit: 4; fill: rgb(255,255,255); fill-rule: nonzero; opacity: 1;" vector-effect="non-scaling-stroke"  transform=" translate(-186.57, -28.75)" d="M 185.44 27.0998 C 186.375 27.0998 187.136 27.84 187.136 28.7496 C 187.136 29.6591 186.375 30.3993 185.44 30.3993 C 185.128 30.3993 184.875 30.6451 184.875 30.9492 C 184.875 31.2533 185.128 31.4992 185.44 31.4992 C 186.998 31.4992 188.266 30.2657 188.266 28.7496 C 188.266 27.2335 186.998 26 185.44 26 C 185.128 26 184.875 26.2458 184.875 26.5499 C 184.875 26.854 185.128 27.0998 185.44 27.0998 Z" stroke-linecap="round" />
</g>
<g transform="matrix(1 0 0 1 189.84 42.23)" id="LFelUcjDkyXCbcP8Uiy-O"  >
<path style="stroke: none; stroke-width: 1; stroke-dasharray: none; stroke-linecap: butt; stroke-dashoffset: 0; stroke-linejoin: miter; stroke-miterlimit: 4; fill: rgb(255,255,255); fill-rule: nonzero; opacity: 1;" vector-effect="non-scaling-stroke"  transform=" translate(-178.66, -39.2)" d="M 172.441 39.7475 L 184.875 39.7475 C 185.187 39.7475 185.44 39.5017 185.44 39.1976 C 185.44 38.8935 185.187 38.6477 184.875 38.6477 L 172.441 38.6477 C 172.129 38.6477 171.876 38.8935 171.876 39.1976 C 171.876 39.5017 172.129 39.7475 172.441 39.7475 Z" stroke-linecap="round" />
</g>
<g transform="matrix(1 0 0 1 201.99 51.03)" id="im-N7glGKKaHYN8ehgUjH"  >
<path style="stroke: none; stroke-width: 1; stroke-dasharray: none; stroke-linecap: butt; stroke-dashoffset: 0; stroke-linejoin: miter; stroke-miterlimit: 4; fill: rgb(255,255,255); fill-rule: nonzero; opacity: 1;" vector-effect="non-scaling-stroke"  transform=" translate(-190.81, -48)" d="M 195.048 47.4465 L 186.571 47.4465 C 186.259 47.4465 186.005 47.6923 186.005 47.9964 C 186.005 48.3006 186.259 48.5464 186.571 48.5464 L 195.048 48.5464 C 195.36 48.5464 195.614 48.3006 195.614 47.9964 C 195.614 47.6923 195.36 47.4465 195.048 47.4465 Z" stroke-linecap="round" />
</g>
<g transform="matrix(1 0 0 1 186.45 46.63)" id="NT7rdwR1lMgNrioWTTwRB"  >
<path style="stroke: none; stroke-width: 1; stroke-dasharray: none; stroke-linecap: butt; stroke-dashoffset: 0; stroke-linejoin: miter; stroke-miterlimit: 4; fill: rgb(255,255,255); fill-rule: nonzero; opacity: 1;" vector-effect="non-scaling-stroke"  transform=" translate(-175.27, -43.6)" d="M 172.441 44.1472 L 178.093 44.1472 C 178.405 44.1472 178.658 43.9014 178.658 43.5973 C 178.658 43.2932 178.405 43.0474 178.093 43.0474 L 172.441 43.0474 C 172.129 43.0474 171.876 43.2932 171.876 43.5973 C 171.876 43.9014 172.129 44.1472 172.441 44.1472 Z" stroke-linecap="round" />
</g>
<g transform="matrix(1 0 0 1 203.41 55.43)" id="4pBZH7OxFrdCwNc5I0411"  >
<path style="stroke: none; stroke-width: 1; stroke-dasharray: none; stroke-linecap: butt; stroke-dashoffset: 0; stroke-linejoin: miter; stroke-miterlimit: 4; fill: rgb(255,255,255); fill-rule: nonzero; opacity: 1;" vector-effect="non-scaling-stroke"  transform=" translate(-192.22, -52.4)" d="M 195.048 51.8459 L 189.397 51.8459 C 189.085 51.8459 188.831 52.0918 188.831 52.3959 C 188.831 52.7 189.085 52.9458 189.397 52.9458 L 195.048 52.9458 C 195.36 52.9458 195.614 52.7 195.614 52.3959 C 195.614 52.0918 195.36 51.8459 195.048 51.8459 Z" stroke-linecap="round" />
</g>
<g transform="matrix(1 0 0 1 199.17 46.63)" id="Qz-JNZwLwr8oPygZs9L0i"  >
<path style="stroke: none; stroke-width: 1; stroke-dasharray: none; stroke-linecap: butt; stroke-dashoffset: 0; stroke-linejoin: miter; stroke-miterlimit: 4; fill: rgb(255,255,255); fill-rule: nonzero; opacity: 1;" vector-effect="non-scaling-stroke"  transform=" translate(-187.98, -43.6)" d="M 183.179 43.5973 C 183.179 43.9014 183.433 44.1472 183.745 44.1472 L 192.222 44.1472 C 192.534 44.1472 192.788 43.9014 192.788 43.5973 C 192.788 43.2932 192.534 43.0474 192.222 43.0474 L 183.745 43.0474 C 183.433 43.0474 183.179 43.2932 183.179 43.5973 Z" stroke-linecap="round" />
</g>
<g transform="matrix(1 0 0 1 192.1 46.63)" id="CKKp_pJtD0QK4-RjJdZQR"  >
<path style="stroke: none; stroke-width: 1; stroke-dasharray: none; stroke-linecap: butt; stroke-dashoffset: 0; stroke-linejoin: miter; stroke-miterlimit: 4; fill: rgb(255,255,255); fill-rule: nonzero; opacity: 1;" vector-effect="non-scaling-stroke"  transform=" translate(-180.92, -43.6)" d="M 181.32 43.9879 C 181.422 43.8834 181.484 43.7405 181.484 43.5975 C 181.484 43.454 181.422 43.311 181.32 43.207 C 181.111 43.0036 180.726 43.0036 180.517 43.207 C 180.416 43.311 180.353 43.454 180.353 43.5975 C 180.353 43.7405 180.416 43.8834 180.517 43.9879 C 180.625 44.0919 180.772 44.1474 180.919 44.1474 C 181.066 44.1474 181.213 44.0919 181.32 43.9879 Z" stroke-linecap="round" />
</g>
<g transform="matrix(1 0 0 1 190.69 51.03)" id="zq1HeR4ldi9Sykw3q7r21"  >
<path style="stroke: none; stroke-width: 1; stroke-dasharray: none; stroke-linecap: butt; stroke-dashoffset: 0; stroke-linejoin: miter; stroke-miterlimit: 4; fill: rgb(255,255,255); fill-rule: nonzero; opacity: 1;" vector-effect="non-scaling-stroke"  transform=" translate(-179.51, -48)" d="M 174.702 47.9964 C 174.702 48.3006 174.955 48.5464 175.267 48.5464 L 183.745 48.5464 C 184.057 48.5464 184.31 48.3006 184.31 47.9964 C 184.31 47.6923 184.057 47.4465 183.745 47.4465 L 175.267 47.4465 C 174.955 47.4465 174.702 47.6923 174.702 47.9964 Z" stroke-linecap="round" />
</g>
<g transform="matrix(1 0 0 1 183.62 51.03)" id="8YUufrqa3tMBYmxkFUOU0"  >
<path style="stroke: none; stroke-width: 1; stroke-dasharray: none; stroke-linecap: butt; stroke-dashoffset: 0; stroke-linejoin: miter; stroke-miterlimit: 4; fill: rgb(255,255,255); fill-rule: nonzero; opacity: 1;" vector-effect="non-scaling-stroke"  transform=" translate(-172.44, -48)" d="M 172.441 48.5469 C 172.588 48.5469 172.735 48.4864 172.842 48.3874 C 172.944 48.2829 173.006 48.1399 173.006 47.997 C 173.006 47.8534 172.944 47.7104 172.842 47.612 C 172.633 47.403 172.249 47.403 172.04 47.6065 C 171.938 47.7104 171.876 47.8534 171.876 47.997 C 171.876 48.1399 171.938 48.2829 172.04 48.3874 C 172.147 48.4864 172.288 48.5469 172.441 48.5469 Z" stroke-linecap="round" />
</g>
<g transform="matrix(1 0 0 1 206.23 46.63)" id="ATL8fAe-M6-RLj7wtx-sI"  >
<path style="stroke: none; stroke-width: 1; stroke-dasharray: none; stroke-linecap: butt; stroke-dashoffset: 0; stroke-linejoin: miter; stroke-miterlimit: 4; fill: rgb(255,255,255); fill-rule: nonzero; opacity: 1;" vector-effect="non-scaling-stroke"  transform=" translate(-195.05, -43.6)" d="M 195.048 44.1474 C 195.195 44.1474 195.342 44.0919 195.45 43.9879 C 195.557 43.8834 195.614 43.7405 195.614 43.5975 C 195.614 43.454 195.557 43.311 195.45 43.207 C 195.235 43.0036 194.856 43.0036 194.647 43.207 C 194.545 43.311 194.483 43.454 194.483 43.5975 C 194.483 43.7405 194.545 43.8834 194.647 43.9879 C 194.755 44.0919 194.901 44.1474 195.048 44.1474 Z" stroke-linecap="round" />
</g>
<g transform="matrix(1 0 0 1 190.69 55.43)" id="cgXjtIGzeYJobB1eLXRPt"  >
<path style="stroke: none; stroke-width: 1; stroke-dasharray: none; stroke-linecap: butt; stroke-dashoffset: 0; stroke-linejoin: miter; stroke-miterlimit: 4; fill: rgb(255,255,255); fill-rule: nonzero; opacity: 1;" vector-effect="non-scaling-stroke"  transform=" translate(-179.51, -52.4)" d="M 186.571 51.8459 L 172.441 51.8459 C 172.129 51.8459 171.876 52.0918 171.876 52.3959 C 171.876 52.7 172.129 52.9458 172.441 52.9458 L 186.571 52.9458 C 186.883 52.9458 187.136 52.7 187.136 52.3959 C 187.136 52.0918 186.883 51.8459 186.571 51.8459 Z" stroke-linecap="round" />
</g>
</svg>