<svg width="114" height="28" xmlns="http://www.w3.org/2000/svg">
 <g>
  <title>background</title>
  <rect x="-1" y="-1" width="116" height="30" id="canvas_background" fill="none"/>
 </g>

 <g>
  <title>Layer 1</title>
  <rect x="0" y="13.019774" width="32" height="1.54334" rx="0.771672" fill="#E3B873" id="svg_2"/>
  <rect x="81.9995" y="13.019774" width="32" height="1.54334" rx="0.771672" fill="#E3B873" id="svg_3"/>
  <path d="m73.8505,8.973274l-24.1204,-8.9362c-0.3085,-0.114 -0.6513,0.0437 -0.7651,0.3525c-0.0002,0.0003 -0.0002,0.0005 -0.0005,0.0008l-2.6701,7.2681c-0.1135,0.3088 0.0447,0.6513 0.3535,0.7648l0.0005,0l2.7959,1.0265l-0.616,1.6784c-0.1133,0.3087 0.045,0.6508 0.3537,0.7643l5.5928,2.0533l-0.411,1.1188c-0.3735,1.0021 -0.025,2.1301 0.8491,2.7464l0,3.0402l-8.016,0c-0.388,-0.8871 -1.182,-1.5311 -2.1303,-1.7276l0,-1.2511c0,-0.329 -0.2665,-0.5958 -0.5958,-0.5958l-2.4019,0c-0.329,0 -0.5958,0.2668 -0.5958,0.5958l0,9.5318c0,0.3293 0.2668,0.5958 0.5958,0.5958l2.4019,0c0.3293,0 0.5958,-0.2665 0.5958,-0.5958l0,-1.2508c0.9483,-0.1968 1.7423,-0.8406 2.1303,-1.7279l8.016,0l0,0.5958c0,0.9871 0.8,1.7874 1.7871,1.7874c0.987,0 1.7873,-0.8003 1.7873,-1.7874l0,-6.5996c0.5412,-0.2685 0.9602,-0.7343 1.1682,-1.3018l0.411,-1.1188l5.033,1.8468c0.066,0.0243 0.135,0.0365 0.205,0.0365c0.25,0 0.474,-0.1557 0.56,-0.3902l0.223,-0.6083c1.939,0.3647 3.806,-0.9111 4.17,-2.8494c0.135,-0.7163 0.048,-1.4566 -0.25,-2.1216l3.611,-1.8544c0.293,-0.15 0.409,-0.509 0.259,-0.8018c-0.068,-0.133 -0.184,-0.2355 -0.324,-0.2872l-0.003,0.0017zm-17.4463,9.3805l0.4933,0.1788c0.2245,0.0805 0.46,0.1267 0.6982,0.137l0,2.1816l-1.1915,0l0,-2.4974zm-12.5289,8.455l-1.2106,0l0,-8.3405l1.2106,0l0,8.3405zm2.3828,-3.5745c-0.001,0.7571 -0.478,1.4318 -1.1915,1.6854l0,-4.5623c0.7135,0.2533 1.1905,0.9281 1.1915,1.6854l0,1.1915zm1.2101,-1.1915l10.1275,0l0,1.1915l-10.1275,0l0,-1.1915zm9.5318,3.5744c-0.3291,0 -0.5958,-0.2668 -0.5958,-0.5958l0,-0.5958l1.1915,0l0,0.5958c0,0.329 -0.2667,0.5958 -0.5957,0.5958zm2.2485,-10.0263l-0.4112,1.1188c-0.227,0.6171 -0.9113,0.9336 -1.5288,0.7071l-1.1206,-0.4106c-0.6175,-0.2267 -0.9345,-0.9113 -0.7078,-1.529c0,0 0,0 0,-0.0003l0.4113,-1.1181l3.0197,1.1086l0.3374,0.1235zm6.003,0.9353l-15.0997,-5.5448l0.4113,-1.1188l8.9474,3.2857c0.212,0.077 0.449,0.0287 0.614,-0.1253l1.672,-1.5738l4.687,1.7216l-1.232,3.3554zm4.028,-2.3284c-0.377,1.0178 -1.393,1.6539 -2.473,1.5491l0.921,-2.5076l1.503,-0.7743c0.235,0.5505 0.253,1.1701 0.049,1.7328zm-2.011,-2.0598c-0.031,0.0027 -0.063,0.0082 -0.093,0.0165l-5.312,-1.9504c-0.212,-0.0777 -0.449,-0.0295 -0.614,0.125l-1.673,1.5741l-11.9583,-4.3912l2.2586,-6.1498l22.2907,8.2581l-4.899,2.5177z" fill="#E3B873" id="svg_4"/>
  <path d="m53.1287,7.911074l-0.5254,1.42m2.8152,-0.5799l-0.5255,1.4199m2.7475,-0.5934l-0.5255,1.4199" stroke="#E3B873" stroke-linecap="round" id="svg_5"/>
 </g>
</svg>